<?xml version="1.0" standalone="no"?>
<!DOCTYPE svg PUBLIC "-//W3C//DTD SVG 20010904//EN"
 "http://www.w3.org/TR/2001/REC-SVG-20010904/DTD/svg10.dtd">
<svg version="1.0" xmlns="http://www.w3.org/2000/svg"
 width="816.000000pt" height="816.000000pt" viewBox="0 0 816.000000 816.000000"
 preserveAspectRatio="xMidYMid meet">
<metadata>
Created by potrace 1.11, written by Peter Selinger 2001-2013
</metadata>
<g transform="translate(0.000000,816.000000) scale(0.100000,-0.100000)"
fill="#000000" stroke="none">
<path d="M0 6548 l0 -903 31 -35 c17 -19 43 -51 58 -70 14 -19 36 -46 48 -60
11 -14 49 -59 83 -100 34 -41 74 -89 88 -106 15 -18 38 -46 52 -64 14 -18 30
-37 35 -44 6 -6 51 -60 100 -121 49 -60 96 -117 104 -126 9 -9 27 -31 41 -49
14 -18 30 -38 35 -44 6 -6 28 -33 50 -61 22 -27 42 -52 45 -55 3 -3 25 -30 50
-60 25 -30 54 -65 65 -77 11 -12 35 -42 54 -67 18 -25 37 -46 42 -46 5 0 9 -6
9 -14 0 -8 3 -16 8 -18 10 -4 112 -125 112 -132 0 -3 8 -14 17 -24 27 -27 85
-95 113 -132 14 -18 32 -41 40 -50 8 -10 29 -35 45 -55 17 -21 37 -45 45 -54
8 -9 53 -63 100 -121 46 -58 87 -107 90 -110 3 -3 57 -68 120 -145 63 -77 117
-142 120 -145 3 -3 17 -21 32 -42 15 -20 33 -42 40 -50 7 -7 56 -65 108 -128
52 -63 97 -117 100 -120 3 -3 18 -23 35 -45 16 -22 39 -50 50 -61 11 -12 54
-63 95 -114 68 -84 129 -159 163 -200 24 -28 79 -96 110 -134 18 -21 42 -50
55 -63 13 -12 19 -23 15 -23 -4 0 -3 -4 2 -8 6 -4 33 -34 60 -67 28 -33 56
-66 63 -73 7 -8 25 -30 40 -50 15 -20 35 -45 45 -57 28 -31 38 -43 133 -160
120 -149 117 -144 138 -168 10 -12 35 -42 55 -67 20 -25 38 -47 41 -50 3 -3
34 -41 70 -85 35 -44 70 -86 77 -93 8 -8 26 -30 41 -50 15 -20 35 -45 45 -57
23 -25 33 -37 87 -105 25 -30 49 -60 55 -66 5 -6 24 -28 40 -49 17 -21 42 -52
57 -69 28 -33 303 -367 368 -448 42 -52 42 -52 84 6 11 15 29 37 40 49 12 13
40 45 61 72 22 27 47 56 55 65 8 9 33 38 55 65 22 27 45 53 50 59 6 6 42 49
80 96 38 47 72 87 75 90 6 6 98 115 120 143 8 11 24 29 35 41 11 11 44 50 73
86 29 36 61 74 71 85 10 11 42 49 72 85 58 71 88 106 104 124 6 6 32 38 60 71
27 33 54 65 60 71 5 6 25 29 43 52 19 23 41 50 50 61 10 10 24 28 32 38 8 10
53 63 100 118 47 56 103 123 125 149 22 27 45 54 50 60 9 9 261 310 374 445
20 24 41 49 47 55 6 6 33 39 59 71 27 33 51 62 54 65 4 3 55 64 115 135 107
129 166 199 217 259 15 17 56 65 90 107 35 41 83 98 105 125 23 27 92 110 154
184 62 74 116 137 119 140 4 3 25 28 46 55 22 28 42 52 45 55 3 3 28 32 55 65
28 33 52 62 55 65 6 6 98 116 120 144 8 10 20 23 25 30 6 6 33 38 60 71 28 33
58 67 67 76 10 9 18 19 18 23 0 3 8 14 18 24 9 10 33 37 52 61 19 23 47 55 61
71 14 15 36 42 50 60 13 17 30 38 38 46 7 8 29 34 48 57 85 102 119 142 133
157 8 8 38 44 65 78 28 34 53 62 58 62 4 0 7 5 7 10 0 6 10 21 23 34 12 13 38
43 57 67 19 24 43 51 53 61 9 10 17 20 17 22 0 3 14 20 31 38 17 18 43 49 57
68 15 19 33 39 39 43 10 6 13 203 13 942 l0 935 -4080 0 -4080 0 0 -902z"/>
</g>
</svg>
